<svg xmlns="http://www.w3.org/2000/svg" width="40" height="41" fill="none"><path fill="#fff" d="M33.966 5.886a19.856 19.856 0 0 0-31.809 22.97L.05 39.084a.757.757 0 0 0 .12.594.767.767 0 0 0 .815.316l10.025-2.376A19.852 19.852 0 0 0 33.966 5.886ZM30.84 30.832a15.551 15.551 0 0 1-17.909 2.911l-1.397-.691-6.146 1.455.018-.076 1.274-6.186-.684-1.35a15.544 15.544 0 1 1 24.844 3.937Z"/><path fill="#fff" d="M30.447 26.295c-.753 1.186-1.943 2.638-3.438 2.998-2.62.633-6.64.022-11.644-4.643l-.062-.054c-4.399-4.08-5.541-7.474-5.265-10.167.153-1.528 1.427-2.91 2.5-3.813a1.43 1.43 0 0 1 2.238.513l1.619 3.639a1.421 1.421 0 0 1-.178 1.455l-.819 1.063a1.408 1.408 0 0 0-.127 1.571c.458.805 1.557 1.987 2.776 3.082 1.368 1.237 2.885 2.369 3.846 2.755a1.39 1.39 0 0 0 1.524-.32l.95-.957a1.455 1.455 0 0 1 1.42-.364l3.845 1.091a1.455 1.455 0 0 1 .815 2.15Z"/></svg>