<svg xmlns="http://www.w3.org/2000/svg" width="41" height="41" fill="none"><g fill="#52E0FF" clip-path="url(#a)"><path d="M38.267 7.79H32.8v-.683a2.733 2.733 0 0 0-2.733-2.734V2.392a2.392 2.392 0 0 0-4.784 0v1.981a2.733 2.733 0 0 0-2.733 2.734v.683h-4.783v-.683a2.733 2.733 0 0 0-2.734-2.734V2.392a2.392 2.392 0 0 0-4.783 0v1.981a2.733 2.733 0 0 0-2.733 2.734v.683H2.733A2.733 2.733 0 0 0 0 10.523v24.6c0 .914.456 1.768 1.217 2.274l4.72 3.147c.45.299.977.457 1.517.456h26.092c.54 0 1.068-.16 1.516-.46l4.72-3.146A2.729 2.729 0 0 0 41 35.124v-24.6a2.733 2.733 0 0 0-2.733-2.734ZM26.65 2.392a1.025 1.025 0 0 1 2.05 0v1.981h-2.05V2.392Zm-2.733 4.715c0-.755.612-1.367 1.366-1.367h4.784c.755 0 1.366.612 1.366 1.367v.683h-7.516v-.683Zm-12.3-4.715a1.025 1.025 0 0 1 2.05 0v1.981h-2.05V2.392ZM8.883 7.107c0-.755.612-1.367 1.367-1.367h4.783c.755 0 1.367.612 1.367 1.367v.683H8.883v-.683Zm30.75 28.016c0 .457-.228.884-.608 1.137l-4.722 3.144c-.224.15-.487.23-.757.23H7.454c-.27 0-.533-.08-.757-.23l-4.721-3.147a1.367 1.367 0 0 1-.61-1.134v-24.6c0-.755.613-1.366 1.367-1.366h35.534c.755 0 1.366.611 1.366 1.366v24.6Z"/><path d="M36.9 11.207H4.1a.683.683 0 0 0-.683.683v18.45c0 .378.306.683.683.683h32.8a.683.683 0 0 0 .683-.683V11.89a.683.683 0 0 0-.683-.683Zm-16.4 14.35a4.783 4.783 0 0 1 4.729 4.1H15.77a4.783 4.783 0 0 1 4.729-4.1Zm15.717 4.1H26.61a6.159 6.159 0 0 0-5.427-5.43V20.09a.683.683 0 1 0-1.366 0v4.14a6.159 6.159 0 0 0-5.427 5.427H4.783V12.573h31.434v17.084Z"/><path d="M20.5 18.04a.683.683 0 0 0 .683-.683v-2.05a.683.683 0 1 0-1.366 0v2.05c0 .377.306.683.683.683ZM7.14 23.412l1.778 1.025a.684.684 0 0 0 .683-1.184l-1.777-1.025a.684.684 0 0 0-.683 1.184ZM15.416 18.365a.683.683 0 1 0 1.285-.466l-.697-1.92a.684.684 0 0 0-1.285.466l.697 1.92ZM11.633 20.833a.684.684 0 1 0 1.047-.88l-1.319-1.571a.683.683 0 1 0-1.043.879l1.315 1.572ZM31.741 24.532c.12 0 .238-.032.342-.092l1.777-1.025a.684.684 0 0 0-.683-1.184L31.4 23.256a.683.683 0 0 0 .341 1.276ZM24.709 18.775a.684.684 0 0 0 .875-.41l.697-1.921a.683.683 0 1 0-1.285-.466l-.697 1.92a.683.683 0 0 0 .41.877ZM28.843 21.077c.202 0 .394-.09.524-.244l1.318-1.572a.683.683 0 1 0-1.046-.88l-1.319 1.572a.684.684 0 0 0 .523 1.122v.002ZM11.617 25.967a.683.683 0 1 0 0-1.367.683.683 0 0 0 0 1.367ZM29.383 25.967a.683.683 0 1 0 0-1.367.683.683 0 0 0 0 1.367ZM27.333 32.8H13.667a.683.683 0 1 0 0 1.367h13.666a.683.683 0 1 0 0-1.367ZM25.283 36.217h-9.566a.683.683 0 1 0 0 1.366h9.566a.683.683 0 1 0 0-1.366Z"/></g><defs><clipPath id="a"><path fill="#fff" d="M0 0h41v41H0z"/></clipPath></defs></svg>