<svg xmlns="http://www.w3.org/2000/svg" width="40" height="40" fill="none"><path fill="#00D1FF" d="m28.617 16.472-9.756 8.374a1.594 1.594 0 0 0-.527 1.186c0 .896.747 1.627 1.666 1.627.443 0 .861-.169 1.216-.515l8.577-9.524a.8.8 0 0 0-.037-1.112.85.85 0 0 0-1.14-.036Z"/><path fill="#00D1FF" d="M20 6.508c-11.029 0-20 8.758-20 19.524 0 2.019.32 4.018.95 5.942.111.337.432.566.795.566h36.51a.832.832 0 0 0 .794-.566c.63-1.924.951-3.923.951-5.942 0-10.766-8.971-19.524-20-19.524Zm15.833 20.337h2.443c-.065 1.376-.253 2.742-.64 4.068H2.364c-.386-1.326-.574-2.692-.639-4.068h2.443c.46 0 .833-.364.833-.813a.823.823 0 0 0-.833-.814H1.709a17.43 17.43 0 0 1 2.027-7.413l2.135 1.203a.85.85 0 0 0 .416.109.834.834 0 0 0 .721-.407.802.802 0 0 0-.304-1.111l-2.13-1.201a18.241 18.241 0 0 1 5.558-5.425l1.23 2.08c.153.26.435.407.721.407a.849.849 0 0 0 .417-.109.802.802 0 0 0 .304-1.111l-1.232-2.085a18.538 18.538 0 0 1 7.595-1.979v2.4c0 .449.372.813.833.813.46 0 .833-.364.833-.814V8.176c2.729.12 5.303.815 7.595 1.98l-1.232 2.084a.802.802 0 0 0 .304 1.111.85.85 0 0 0 .417.109.836.836 0 0 0 .72-.407l1.23-2.08a18.241 18.241 0 0 1 5.559 5.425l-2.13 1.2a.802.802 0 0 0-.304 1.112.849.849 0 0 0 1.138.298l2.134-1.204a17.43 17.43 0 0 1 2.027 7.414h-2.458a.823.823 0 0 0-.833.814c0 .45.373.813.833.813Z"/></svg>