<svg xmlns="http://www.w3.org/2000/svg" width="109" height="109" fill="none"><g fill="#52E0FF" clip-path="url(#a)"><path d="M49.284 43.43c0 .881-.715 1.596-1.596 1.596h-2.662v18.948h18.948V45.026H54.5a1.597 1.597 0 0 1 0-3.193h10.219a2.451 2.451 0 0 1 2.448 2.448V64.72a2.451 2.451 0 0 1-2.448 2.448H44.28a2.451 2.451 0 0 1-2.448-2.448V44.28a2.451 2.451 0 0 1 2.448-2.448h3.407c.881 0 1.596.715 1.596 1.597ZM100.165 6.387a2.451 2.451 0 0 1 2.448 2.448v11.07a2.45 2.45 0 0 1-2.448 2.448h-11.07a2.451 2.451 0 0 1-2.448-2.448V8.835a2.451 2.451 0 0 1 2.448-2.448h11.07ZM89.84 19.16h9.58V9.58h-9.58v9.58ZM89.095 86.647h11.07a2.45 2.45 0 0 1 2.448 2.448v11.07a2.45 2.45 0 0 1-2.448 2.448h-11.07a2.45 2.45 0 0 1-2.448-2.448v-11.07a2.451 2.451 0 0 1 2.448-2.448Zm.745 12.773h9.58v-9.58h-9.58v9.58Z"/><path d="M24.589 28.74H4.15A4.156 4.156 0 0 1 0 24.59V4.15A4.156 4.156 0 0 1 4.151 0H24.59a4.156 4.156 0 0 1 4.151 4.151v8.622H47.9c.882 0 1.597.716 1.597 1.597v21.076h8.729v-6.235a4.798 4.798 0 0 1-3.194-4.516 4.796 4.796 0 0 1 4.79-4.79 4.796 4.796 0 0 1 4.79 4.79 4.798 4.798 0 0 1-3.193 4.516v6.235h7.133a5.007 5.007 0 0 1 5.002 5.002v9.262h19.48V28.74H84.41a4.156 4.156 0 0 1-4.151-4.151v-4.151a1.597 1.597 0 0 1 3.193 0v4.15c0 .529.43.959.958.959h20.438a.96.96 0 0 0 .958-.958V4.15a.96.96 0 0 0-.958-.958H84.411a.96.96 0 0 0-.958.958v9.474a1.597 1.597 0 0 1-3.193 0V4.151A4.156 4.156 0 0 1 84.41 0h20.438A4.156 4.156 0 0 1 109 4.151V24.59a4.156 4.156 0 0 1-4.151 4.151h-8.622v22.567c0 .881-.716 1.596-1.597 1.596H73.554v6.813h2.19a4.798 4.798 0 0 1 4.516-3.194 4.796 4.796 0 0 1 4.79 4.79 4.796 4.796 0 0 1-4.79 4.79 4.798 4.798 0 0 1-4.516-3.193h-2.19v5.643a5.007 5.007 0 0 1-5.002 5.002H61.42v18.965h18.84v-8.108a4.156 4.156 0 0 1 4.152-4.151h20.438A4.156 4.156 0 0 1 109 84.41v20.438a4.156 4.156 0 0 1-4.151 4.151H84.411a4.156 4.156 0 0 1-4.151-4.151v-9.136H59.822a1.597 1.597 0 0 1-1.596-1.597V73.554h-8.729v7.087a4.798 4.798 0 0 1 3.193 4.515 4.796 4.796 0 0 1-4.79 4.79 4.796 4.796 0 0 1-4.79-4.79 4.798 4.798 0 0 1 3.194-4.515v-7.087h-5.856a5.007 5.007 0 0 1-5.002-5.002v-10.87H15.964V80.26h8.625a4.156 4.156 0 0 1 4.151 4.151v4.151a1.597 1.597 0 0 1-3.193 0v-4.15a.96.96 0 0 0-.958-.959H4.15a.96.96 0 0 0-.958.958v20.438c0 .528.43.958.958.958H24.59a.96.96 0 0 0 .958-.958v-9.5a1.597 1.597 0 0 1 3.193 0v9.5A4.156 4.156 0 0 1 24.59 109H4.15A4.156 4.156 0 0 1 0 104.849V84.411a4.156 4.156 0 0 1 4.151-4.151h8.62V56.086c0-.882.715-1.597 1.597-1.597h21.078v-5.418h-7.608a4.798 4.798 0 0 1-4.516 3.194 4.796 4.796 0 0 1-4.79-4.79 4.796 4.796 0 0 1 4.79-4.79 4.798 4.798 0 0 1 4.516 3.193h7.608v-5.43a5.007 5.007 0 0 1 5.002-5.002h5.856v-19.48H28.74v8.623a4.156 4.156 0 0 1-4.151 4.151ZM59.822 23.1c-.88 0-1.596.716-1.596 1.596 0 .881.716 1.597 1.596 1.597.88 0 1.597-.716 1.597-1.597 0-.88-.716-1.596-1.597-1.596Zm20.438 39.81c.88 0 1.596-.716 1.596-1.596 0-.881-.716-1.597-1.596-1.597-.88 0-1.597.716-1.597 1.596 0 .881.716 1.597 1.597 1.597Zm3.193 41.94c0 .528.43.958.958.958h20.438a.96.96 0 0 0 .958-.958V84.411a.96.96 0 0 0-.958-.958H84.411a.96.96 0 0 0-.958.958v20.438ZM47.9 86.753c.881 0 1.597-.716 1.597-1.597 0-.88-.716-1.596-1.597-1.596-.88 0-1.596.716-1.596 1.596 0 .88.716 1.597 1.596 1.597ZM23.322 45.878c-.88 0-1.596.716-1.596 1.597 0 .88.716 1.596 1.596 1.596.881 0 1.597-.716 1.597-1.596 0-.881-.716-1.597-1.597-1.597Zm15.318-5.43v28.104c0 .997.81 1.808 1.808 1.808h28.104a1.81 1.81 0 0 0 1.808-1.808V40.448a1.81 1.81 0 0 0-1.808-1.808H40.448a1.81 1.81 0 0 0-1.808 1.808ZM24.589 3.193H4.15a.96.96 0 0 0-.958.958V24.59c0 .528.43.958.958.958H24.59a.96.96 0 0 0 .958-.958V14.412l-.003-.042c0-.014.002-.027.003-.041V4.15a.96.96 0 0 0-.958-.958Z"/><path d="M19.905 22.354H8.835a2.451 2.451 0 0 1-2.448-2.449V8.835a2.451 2.451 0 0 1 2.448-2.448h11.07a2.451 2.451 0 0 1 2.448 2.448v11.07a2.451 2.451 0 0 1-2.448 2.448ZM19.16 9.58H9.58v9.58h9.58V9.58ZM8.835 102.613a2.451 2.451 0 0 1-2.448-2.448v-11.07a2.451 2.451 0 0 1 2.448-2.448h11.07a2.451 2.451 0 0 1 2.448 2.448v11.07a2.45 2.45 0 0 1-2.448 2.448H8.835ZM19.16 89.84H9.58v9.58h9.58v-9.58Z"/></g><defs><clipPath id="a"><path fill="#fff" d="M109 0H0v109h109z"/></clipPath></defs></svg>