<svg xmlns="http://www.w3.org/2000/svg" width="40" height="40" fill="none"><path fill="#52E0FF" d="M33.333 30c-.5 0-.833-.167-1.166-.5L21 18.167l-4 4c-.667.666-1.667.666-2.333 0L5.5 12.833c-.667-.666-.667-1.666 0-2.333.667-.667 1.667-.667 2.333 0l8 8.167 4-4c.667-.667 1.667-.667 2.334 0l12.333 12.5c.667.666.667 1.666 0 2.333-.333.333-.667.5-1.167.5Z"/><path fill="#52E0FF" d="M33.333 30h-10c-1 0-1.666-.667-1.666-1.667s.666-1.666 1.666-1.666h8.334v-8.334c0-1 .666-1.666 1.666-1.666 1 0 1.667.666 1.667 1.666v10c0 1-.667 1.667-1.667 1.667Z"/></svg>