<svg xmlns="http://www.w3.org/2000/svg" width="37" height="41" fill="none"><path stroke="#52E0FF" d="M2.053 38.892v-.002L5.096 2.286v-.002a.328.328 0 0 1 .034-.126.163.163 0 0 1 .046-.054.31.31 0 0 1 .183-.053.31.31 0 0 1 .189.056c.028.022.065.063.072.17l.001.008 1.802 20.018v.002c.099 1.142 1.052 1.638 1.82 1.638.776 0 1.706-.502 1.82-1.633v-.002l.842-8.826c.01-.103.046-.143.075-.166a.333.333 0 0 1 .179-.062h.008l.008-.002a.242.242 0 0 1 .154.032c.03.02.075.061.1.168l1.59 6.933h.001c.223.98 1.064 1.456 1.836 1.4.718-.023 1.563-.491 1.741-1.492L2.053 38.892Zm0 0c-.035.41-.098.744-.182.99-.04.119-.096.245-.176.35-.064.086-.241.286-.536.267-.3-.02-.448-.247-.5-.344a1.264 1.264 0 0 1-.119-.376c-.044-.256-.052-.598-.022-1.014v-.004L3.573 2.158v-.003C3.656 1.013 4.608.5 5.381.5c.768 0 1.721.496 1.82 1.638v.002l1.802 20.017a.329.329 0 0 0 .034.128c.012.023.028.04.045.054a.31.31 0 0 0 .183.053.325.325 0 0 0 .186-.053.154.154 0 0 0 .044-.05.3.3 0 0 0 .033-.12v-.002l.842-8.827c.099-1.058.948-1.578 1.696-1.623.746-.046 1.654.358 1.898 1.394v.003l1.591 6.934.003.01c.01.049.025.077.036.092.011.016.026.03.046.042a.427.427 0 0 0 .197.053.274.274 0 0 0 .147-.048c.033-.023.072-.066.09-.162v-.002c.194-1.03 1.052-1.487 1.802-1.487h.022c.742.015 1.62.483 1.782 1.537v.002l2.364 15.624v.004c.017.117.06.157.087.175a.268.268 0 0 0 .168.04l.008-.001h.008a.318.318 0 0 0 .18-.06.173.173 0 0 0 .047-.057.298.298 0 0 0 .03-.12v-.001L24.654 7.84V7.84c.082-1.133 1.012-1.669 1.798-1.669h.023c.773 0 1.705.499 1.82 1.62l1.509 14.959v.003c.006.06.02.098.033.12a.162.162 0 0 0 .045.052c.04.031.104.052.173.052h.018l.018.002a.237.237 0 0 0 .15-.044c.033-.024.076-.07.09-.182v-.002l1.1-9.008c.1-.915.843-1.56 1.754-1.59l.009-.001H33.237c.893 0 1.629.604 1.79 1.476l.001.003 1.462 8.092-.492.09.492-.09c.057.311-.138.524-.23.604a.98.98 0 0 1-.384.201.849.849 0 0 1-.499-.009.672.672 0 0 1-.444-.527v-.001L33.47 13.9v-.004a.266.266 0 0 0-.038-.104.177.177 0 0 0-.052-.05.358.358 0 0 0-.18-.051.317.317 0 0 0-.168.057c-.032.025-.07.068-.083.17M2.053 38.891 32.95 13.918m0 0-1.1 9.01c-.13 1.104-1.046 1.589-1.807 1.589h-.011c-.768 0-1.694-.516-1.808-1.62l-1.51-14.959v-.004a.27.27 0 0 0-.031-.113.17.17 0 0 0-.05-.054.349.349 0 0 0-.184-.056.344.344 0 0 0-.183.06.163.163 0 0 0-.046.054.296.296 0 0 0-.03.12v.003l-2.083 27.849c-.082 1.124-.999 1.638-1.753 1.669L32.95 13.918Zm-15.104 6.168h.018c.065 0 .127.02.169.05.03.021.07.062.086.166v.001l2.363 15.622v.001c.164 1.106 1.134 1.57 1.872 1.54l-4.508-17.38Zm0 0-.018-.002m.018.002-.018-.002m0 0a.219.219 0 0 0-.14.037m.14-.037-.14.037m0 0c-.03.021-.073.065-.092.172l.091-.172Z"/></svg>