<svg xmlns="http://www.w3.org/2000/svg" width="114" height="114" fill="none"><path fill="#52E0FF" d="M54.047 42.894c-6.124 0-11.106 4.982-11.106 11.106 0 1.31.226 2.594.673 3.815a1.585 1.585 0 1 0 2.978-1.089 7.911 7.911 0 0 1-.48-2.726c0-4.376 3.56-7.936 7.935-7.936 4.376 0 7.936 3.56 7.936 7.936 0 4.376-3.56 7.936-7.936 7.936a7.92 7.92 0 0 1-4.089-1.133 1.586 1.586 0 0 0-1.636 2.716 11.09 11.09 0 0 0 5.725 1.587c6.124 0 11.107-4.982 11.107-11.106S60.17 42.894 54.047 42.894Z"/><path fill="#52E0FF" d="m76.845 49.538-2.94-.442a20.195 20.195 0 0 0-2.35-5.67l1.768-2.392a3.006 3.006 0 0 0-.294-3.935l-2.082-2.081a3.006 3.006 0 0 0-3.934-.294L64.62 36.49a20.182 20.182 0 0 0-5.67-2.35l-.442-2.94a3.006 3.006 0 0 0-2.99-2.574h-2.944a3.006 3.006 0 0 0-2.99 2.574l-.442 2.94a20.183 20.183 0 0 0-5.67 2.35l-2.391-1.767a3.006 3.006 0 0 0-3.935.294l-2.08 2.081a3.005 3.005 0 0 0-.295 3.936l1.767 2.391a20.17 20.17 0 0 0-2.35 5.67l-2.939.442a3.005 3.005 0 0 0-2.575 2.99v2.944a3.005 3.005 0 0 0 2.575 2.99l2.94.442a20.189 20.189 0 0 0 2.349 5.67l-1.767 2.392a3.006 3.006 0 0 0 .294 3.935l2.081 2.081a3.006 3.006 0 0 0 3.935.294l2.392-1.767a20.184 20.184 0 0 0 5.67 2.35l.441 2.94a3.006 3.006 0 0 0 2.99 2.574h2.944a3.006 3.006 0 0 0 2.99-2.575l.442-2.939a20.185 20.185 0 0 0 5.67-2.35l2.392 1.767a3.006 3.006 0 0 0 3.934-.294l2.081-2.081a3.006 3.006 0 0 0 .294-3.935l-1.767-2.392a20.18 20.18 0 0 0 2.35-5.67l2.94-.442a3.005 3.005 0 0 0 2.574-2.99v-2.944a3.005 3.005 0 0 0-2.574-2.99Zm-.596 5.808-3.897.585c-.667.1-1.198.613-1.322 1.276a17.091 17.091 0 0 1-2.708 6.534 1.585 1.585 0 0 0 .034 1.836l2.342 3.17-1.903 1.904-3.17-2.342a1.586 1.586 0 0 0-1.837-.034 17.09 17.09 0 0 1-6.534 2.708 1.585 1.585 0 0 0-1.276 1.323l-.585 3.896h-2.691l-.586-3.897a1.585 1.585 0 0 0-1.276-1.322 17.09 17.09 0 0 1-6.533-2.708 1.584 1.584 0 0 0-1.837.034L39.3 70.65l-1.903-1.903 2.341-3.17c.401-.543.415-1.28.034-1.837a17.088 17.088 0 0 1-2.708-6.534 1.585 1.585 0 0 0-1.322-1.276l-3.896-.585v-2.692l3.896-.585a1.585 1.585 0 0 0 1.322-1.276 17.09 17.09 0 0 1 2.708-6.534 1.584 1.584 0 0 0-.034-1.836l-2.341-3.17 1.903-1.904 3.17 2.342c.543.401 1.28.414 1.837.034a17.094 17.094 0 0 1 6.533-2.708 1.585 1.585 0 0 0 1.276-1.323l.586-3.896h2.69l.586 3.896c.1.668.612 1.198 1.276 1.323a17.087 17.087 0 0 1 6.534 2.708c.556.38 1.293.367 1.836-.034l3.17-2.342 1.904 1.903-2.342 3.17a1.585 1.585 0 0 0-.034 1.837 17.09 17.09 0 0 1 2.708 6.534 1.585 1.585 0 0 0 1.322 1.276l3.897.585v2.692Z"/><path fill="#52E0FF" d="M107.873 53.428a1.584 1.584 0 0 0-1.458-.964h-2.723A49.529 49.529 0 0 0 90.754 20.54C82.578 11.575 71.496 5.942 59.498 4.63L55.146.44c-.944-.974-2.73-.214-2.684 1.141v2.773a49.316 49.316 0 0 0-27.005 9.024 1.585 1.585 0 1 0 1.828 2.591c7.858-5.54 17.112-8.47 26.762-8.47.876 0 1.585-.709 1.585-1.585V5.31l8.295 7.988-8.295 6.702v-1.562c0-.875-.71-1.585-1.585-1.585a37.134 37.134 0 0 0-24.276 9.03 37.198 37.198 0 0 0-11.74 19.004l-3.397-4.205c-.566-.734-1.749-.785-2.376-.103l-3.722 3.866a46.44 46.44 0 0 1 13.98-24.62 1.585 1.585 0 0 0-2.15-2.329C11.561 25.622 6.011 36.592 4.69 48.437L.44 52.852c-.974.945-.215 2.73 1.141 2.684h2.82a49.537 49.537 0 0 0 12.903 31.886c8.152 8.958 19.208 14.601 31.182 15.936l4.364 4.202c.95.974 2.728.213 2.684-1.142v-2.769c9.916-.29 19.374-3.479 27.44-9.267a1.585 1.585 0 0 0-1.85-2.576C73.2 97.494 63.837 100.5 54.029 100.5l-.08-.001c-.875 0-1.584.709-1.584 1.585v.607l-8.295-7.988L52.363 88v1.56c0 .872.704 1.58 1.575 1.585l.108.002a37.137 37.137 0 0 0 24.238-8.997 37.207 37.207 0 0 0 11.755-18.946l3.323 4.114c.566.733 1.747.785 2.375.103l3.846-3.994a46.468 46.468 0 0 1-13.716 24.478 1.585 1.585 0 0 0 2.17 2.31 49.6 49.6 0 0 0 15.378-30.767l4.141-4.301a1.584 1.584 0 0 0 .317-1.72ZM40.679 93.366c-.733.565-.785 1.747-.103 2.374l3.918 3.774c-9.52-1.99-18.21-6.935-24.846-14.227a46.38 46.38 0 0 1-12.1-31.282v-.054c0-.876-.709-1.585-1.584-1.585h-.656l7.988-8.295 6.702 8.295h-1.512a1.58 1.58 0 0 0-1.585 1.58V54c0 8.9 3.195 17.51 9 24.242a37.203 37.203 0 0 0 18.95 11.754l-4.172 3.37Zm35.535-13.617a33.96 33.96 0 0 1-20.68 8.196v-3.263c.042-1.292-1.603-2.078-2.581-1.233l-4.94 3.992c-7.634-1.37-14.611-5.353-19.712-11.27a33.964 33.964 0 0 1-8.196-20.635h3.212c1.292.042 2.078-1.603 1.233-2.582l-3.96-4.9a33.988 33.988 0 0 1 31.872-27.995v3.258c-.043 1.293 1.603 2.078 2.581 1.234l4.959-4.007c7.651 1.354 14.649 5.333 19.766 11.255a33.957 33.957 0 0 1 8.22 20.665H84.68c-1.292-.043-2.078 1.603-1.233 2.581l4.039 4.999c-1.371 7.632-5.355 14.607-11.27 19.705ZM94.7 63.93l-6.702-8.295h1.61a1.58 1.58 0 0 0 1.585-1.58V54a37.136 37.136 0 0 0-9.026-24.273A37.197 37.197 0 0 0 63.17 17.985l4.146-3.35c.734-.566.785-1.749.103-2.376l-3.942-3.797c9.552 1.969 18.273 6.91 24.935 14.214a46.375 46.375 0 0 1 12.133 31.318v.055c0 .875.709 1.585 1.585 1.585h.557L94.7 63.929Z"/></svg>