<svg xmlns="http://www.w3.org/2000/svg" width="40" height="40" fill="none"><path fill="#52E0FF" stroke="#52E0FF" d="m30.899 20.287-6.15-3.447 8.546-8.545.353-.354-.353-.353-.884-.884-.354-.354-.353.354-8.994 8.993-2.202-1.234 1.876-10.765a1.126 1.126 0 0 0-2.013-.862v.002L8.743 18.588l-.001.001a1.125 1.125 0 0 0 .36 1.65l.001.001 5.837 3.227-8.237 8.237-.354.353.354.354.884.884.353.353.354-.353L16.99 24.6l2.256 1.247-2.27 10.405v.001c-.113.511.142 1.03.612 1.254a1.126 1.126 0 0 0 1.362-.307v-.001l12.276-15.225v-.002c.207-.258.29-.591.23-.915l-.002-.004a1.125 1.125 0 0 0-.555-.766Zm-12.187-4.25h.001l2.345 1.314-4.46 4.46-5.28-2.919 8.03-10.881-1.193 6.85v.001c-.083.473.143.942.557 1.175Zm9.926 5.562L20.19 32.078l1.433-6.57a1.125 1.125 0 0 0-.553-1.224l-2.424-1.34 4.45-4.45 5.542 3.105Z"/></svg>