<svg xmlns="http://www.w3.org/2000/svg" width="112" height="112" fill="none"><g clip-path="url(#a)"><path fill="#52E0FF" d="M56 0c-8.237 0-16.072 1.777-23.122 4.977-2.269 1.029-.727 4.43 1.542 3.401C40.997 5.393 48.3 3.737 56 3.737c28.888 0 52.267 23.375 52.267 52.263 0 12.138-4.178 23.251-11.12 32.127-.588.76-.508 1.84.19 2.5l4.561 4.576H87.719V81.04l4.299 4.284c1.764 1.827 4.469-.893 2.632-2.647l-7.467-7.466a1.87 1.87 0 0 0-1.353-.537 1.868 1.868 0 0 0-1.83 1.86v20.53a1.867 1.867 0 0 0 1.86 1.873h20.529c1.66 0 2.494-2.005 1.324-3.182l-6.618-6.643C107.926 79.829 112 68.389 112 55.999 112 25.094 86.906 0 56 0Zm0 7.47c-7.034 0-13.736 1.493-19.775 4.19-2.342.985-.785 4.491 1.517 3.415A44.68 44.68 0 0 1 56 11.204c24.765 0 44.796 20.031 44.796 44.796 0 7.29-1.738 14.16-4.823 20.242-1.305 2.268 2.25 4.083 3.321 1.695A48.402 48.402 0 0 0 104.53 56c0-26.782-21.748-48.53-48.53-48.53ZM5.593 13.063c-1.66 0-2.494 2.006-1.324 3.183l6.621 6.643C4.06 32.17 0 43.61 0 56c0 30.906 25.094 56 56 56 8.238 0 16.058-1.773 23.107-4.973 2.27-1.029.728-4.434-1.542-3.405-6.576 2.985-13.865 4.645-21.565 4.645-28.888 0-52.28-23.379-52.28-52.267 0-12.139 4.136-23.288 11.079-32.163a1.873 1.873 0 0 0-.153-2.476l-4.547-4.564h14.168v14.167l-4.302-4.287c-1.764-1.827-4.469.892-2.632 2.647l7.47 7.47c1.176 1.195 3.21.353 3.197-1.324V14.937a1.867 1.867 0 0 0-1.873-1.874H5.593Zm52.55 12.075L35.756 60.605c-.785 1.239.1 2.858 1.567 2.865H52.11L50.4 85.725c-.137 1.926 2.383 2.767 3.43 1.144L76.239 51.4c.79-1.246-.11-2.873-1.586-2.866H57.856c-2.491 0-2.491 3.737 0 3.737h13.42L54.7 78.505l1.283-16.756a1.867 1.867 0 0 0-1.86-2.012H40.714l16.578-26.25-.719 9.26c-.254 2.543 3.602 2.826 3.723.274l1.294-16.742a1.865 1.865 0 0 0-1.954-2.01 1.867 1.867 0 0 0-1.491.87v-.001Zm-43.87 7.893a1.874 1.874 0 0 0-1.582 1.032A48.398 48.398 0 0 0 7.452 56c0 26.782 21.766 48.533 48.548 48.533 7.034 0 13.721-1.492 19.76-4.189 2.28-1.01.763-4.43-1.517-3.42A44.61 44.61 0 0 1 56 100.797c-24.765 0-44.811-20.031-44.811-44.796 0-7.29 1.739-14.16 4.824-20.242.664-1.275-.303-2.79-1.74-2.727Z"/></g><defs><clipPath id="a"><path fill="#fff" d="M0 0h112v112H0z"/></clipPath></defs></svg>