<svg xmlns="http://www.w3.org/2000/svg" width="126" height="126" fill="none"><g clip-path="url(#a)"><path fill="#52E0FF" d="M104.475 32.025v48.431a2.1 2.1 0 1 1-4.2 0V32.025c0-3.474-2.826-6.3-6.3-6.3h-61.95a6.307 6.307 0 0 0-6.3 6.3v61.95c0 3.474 2.826 6.3 6.3 6.3h61.95c3.474 0 6.3-2.826 6.3-6.3a2.1 2.1 0 1 1 4.2 0c0 5.79-4.71 10.5-10.5 10.5h-61.95c-5.79 0-10.5-4.71-10.5-10.5v-61.95c0-5.79 4.71-10.5 10.5-10.5h61.95c5.79 0 10.5 4.71 10.5 10.5ZM63 15.225a2.1 2.1 0 0 0 2.1-2.1V2.1a2.1 2.1 0 0 0-4.2 0v11.025c0 1.16.94 2.1 2.1 2.1Zm-21 0a2.1 2.1 0 0 0 2.1-2.1V2.1a2.1 2.1 0 0 0-4.2 0v11.025c0 1.16.94 2.1 2.1 2.1Zm42 0a2.1 2.1 0 0 0 2.1-2.1V2.1a2.1 2.1 0 0 0-4.2 0v11.025c0 1.16.94 2.1 2.1 2.1Zm-21 95.55a2.1 2.1 0 0 0-2.1 2.1V123.9a2.1 2.1 0 1 0 4.2 0v-11.025a2.1 2.1 0 0 0-2.1-2.1Zm21 0a2.1 2.1 0 0 0-2.1 2.1V123.9a2.1 2.1 0 1 0 4.2 0v-11.025a2.1 2.1 0 0 0-2.1-2.1Zm-42 0a2.1 2.1 0 0 0-2.1 2.1V123.9a2.1 2.1 0 1 0 4.2 0v-11.025a2.1 2.1 0 0 0-2.1-2.1ZM123.9 60.9h-11.025a2.1 2.1 0 1 0 0 4.2H123.9a2.1 2.1 0 1 0 0-4.2Zm-11.025-16.8H123.9a2.1 2.1 0 1 0 0-4.2h-11.025a2.1 2.1 0 1 0 0 4.2ZM123.9 81.9h-11.025a2.1 2.1 0 1 0 0 4.2H123.9a2.1 2.1 0 1 0 0-4.2Zm-110.775-21H2.1a2.1 2.1 0 0 0 0 4.2h11.025a2.1 2.1 0 0 0 0-4.2Zm0 21H2.1a2.1 2.1 0 0 0 0 4.2h11.025a2.1 2.1 0 0 0 0-4.2Zm0-42H2.1a2.1 2.1 0 0 0 0 4.2h11.025a2.1 2.1 0 0 0 0-4.2Zm52.66 30.685a3.935 3.935 0 0 1-.001 5.568 3.935 3.935 0 0 1-5.568 0 3.935 3.935 0 0 1 0-5.569 3.935 3.935 0 0 1 5.568 0Zm6.867-3.898a2.1 2.1 0 0 0 0-2.97c-5.334-5.335-13.969-5.335-19.304 0a2.1 2.1 0 1 0 2.97 2.97 9.444 9.444 0 0 1 13.364 0 2.1 2.1 0 0 0 2.97 0Zm7.796-7.796a2.1 2.1 0 0 0 0-2.97c-9.644-9.643-25.251-9.644-34.896 0a2.1 2.1 0 1 0 2.97 2.97c8.001-8.002 20.954-8.003 28.956 0a2.1 2.1 0 0 0 2.97 0Z"/></g><defs><clipPath id="a"><path fill="#fff" d="M0 0h126v126H0z"/></clipPath></defs></svg>