<svg xmlns="http://www.w3.org/2000/svg" width="42" height="42" fill="none"><g fill="#52E0FF" clip-path="url(#a)"><path d="M19.764 27.233V11.01a1.23 1.23 0 1 0-2.461 0v16.223a5.008 5.008 0 0 0-3.768 4.845 5.004 5.004 0 0 0 4.998 4.999 5.004 5.004 0 0 0 4.999-4.999 5.008 5.008 0 0 0-3.768-4.845Zm-1.23 7.383a2.54 2.54 0 0 1-2.538-2.538 2.54 2.54 0 0 1 2.537-2.538 2.54 2.54 0 0 1 2.538 2.538 2.54 2.54 0 0 1-2.538 2.538Z"/><path d="M24.64 24.259V6.107A6.114 6.114 0 0 0 18.533 0a6.114 6.114 0 0 0-6.106 6.107V24.26a9.918 9.918 0 0 0-3.814 7.82c0 5.47 4.45 9.921 9.92 9.921s9.92-4.45 9.92-9.922a9.918 9.918 0 0 0-3.813-7.82Zm-6.107 15.28c-4.113 0-7.459-3.347-7.459-7.46A7.462 7.462 0 0 1 14.35 25.9c.337-.229.539-.61.539-1.018V6.107a3.65 3.65 0 0 1 3.645-3.646 3.65 3.65 0 0 1 3.646 3.646v18.776c0 .408.202.79.54 1.018a7.462 7.462 0 0 1 3.274 6.177c0 4.114-3.346 7.461-7.46 7.461Z"/><path d="M32.145 19.645h-3.813a1.23 1.23 0 1 0 0 2.461h3.813a1.23 1.23 0 0 0 0-2.46ZM32.145 14.723h-3.813a1.23 1.23 0 1 0 0 2.46h3.813a1.23 1.23 0 0 0 0-2.46ZM32.145 9.8h-3.813a1.23 1.23 0 1 0 0 2.46h3.813a1.23 1.23 0 0 0 0-2.46ZM28.332 7.338h3.813a1.23 1.23 0 0 0 0-2.461h-3.813a1.23 1.23 0 0 0 0 2.46Z"/></g><defs><clipPath id="a"><path fill="#fff" d="M0 0h42v42H0z"/></clipPath></defs></svg>