<svg xmlns="http://www.w3.org/2000/svg" width="40" height="40" fill="none"><g fill="#52E0FF" clip-path="url(#a)"><path d="m7.488 31.916-7.07-7.07c-.708-.708-.708-1.65 0-2.358.706-.707 1.65-.707 2.356 0l5.893 5.893 5.892-5.893c.708-.707 1.65-.707 2.357 0 .707.707.707 1.65 0 2.357l-7.07 7.071c-.708.707-1.65.707-2.358 0ZM29.607 2.179l7.07 7.07c.708.708.708 1.65 0 2.358-.706.707-1.65.707-2.356 0l-5.893-5.893-5.893 5.893c-.707.707-1.65.707-2.357 0-.707-.707-.707-1.65 0-2.357l7.072-7.071c.707-.708 1.65-.708 2.357 0Z"/><rect width="26" height="3" x="10" y="3" rx="1.5" transform="rotate(90 10 3)"/><rect width="27" height="3" x="30" y="5" rx="1.5" transform="rotate(90 30 5)"/></g><defs><clipPath id="a"><path fill="#fff" d="M0 0h40v40H0z"/></clipPath></defs></svg>