<svg xmlns="http://www.w3.org/2000/svg" width="123" height="57" fill="none"><path fill="url(#a)" fill-rule="evenodd" d="M19.427 24.538h8.65v32.403h-8.65V44.002H8.65v12.939H0V24.538h8.65v12.915h10.777V24.538Zm94.926.008-7.525 10.29-7.52-10.29h-8.65l11.847 16.196-11.847 16.196h8.65l7.52-10.29 7.525 10.29h8.63l-11.838-16.196 11.838-16.196h-8.63ZM76.451 15.91 64.651 0l-8.583 23.07-8.582 23.072L36.68 15.908H0v6.478h30.207L43.17 56.938h8.625L66.9 16.347l4.48 6.04H123v-6.479H76.448l.003.003Zm-.935 34.552v-6.478l12.97.059v-6.599l-12.97.06v-6.398l17.28-.078-4.744-6.483H66.9V57l21.134-.06 4.76-6.477h-17.28.003Z" clip-rule="evenodd"/><defs><linearGradient id="a" x1="61.659" x2="61.503" y1="58.081" y2="36.918" gradientUnits="userSpaceOnUse"><stop stop-color="#B8B8B8"/><stop offset=".35" stop-color="#BFBFBF"/><stop offset=".86" stop-color="#D3D3D3"/><stop offset="1" stop-color="#DBDBDB"/></linearGradient></defs></svg>