<svg xmlns="http://www.w3.org/2000/svg" width="50" height="50" fill="none"><circle cx="25" cy="25" r="25" fill="#00B6DE"/><path fill="#FDFDFD" d="M18.868 36.342h-5.823V21.17h5.823v15.172Zm-2.979-17.6a2.861 2.861 0 0 1-2.664-1.756 2.877 2.877 0 0 1 .606-3.137 2.864 2.864 0 0 1 4.901 2.022 2.864 2.864 0 0 1-.828 2.026 2.853 2.853 0 0 1-2.015.846Zm20.453 17.6h-4.659v-8.169c0-2.24-.987-3.491-2.755-3.491-1.925 0-3.069 1.302-3.069 3.491v8.17H21.2V21.17h4.66v1.706a5.617 5.617 0 0 1 4.755-2.566c3.296 0 5.728 2.014 5.728 6.183v9.85Z"/></svg>