<svg xmlns="http://www.w3.org/2000/svg" width="50" height="50" fill="none"><circle cx="25" cy="25" r="25" fill="#00B6DE"/><path fill="#FDFDFD" d="M37.472 17.516a3.336 3.336 0 0 0-1.99-1.182 140.256 140.256 0 0 0-19.353 0 3.408 3.408 0 0 0-1.702.86c-2.066 1.917-1.424 12.188-.92 13.851.138.587.42 1.13.821 1.581a3.307 3.307 0 0 0 1.732.901c6.449.533 12.93.553 19.382.06a3.358 3.358 0 0 0 1.781-.91c1.913-1.908 1.779-12.755.25-15.16Zm-14.23 10.758v-7.18c2.554 1.205 4.532 2.36 6.87 3.61-1.93 1.063-4.316 2.262-6.87 3.57Z"/></svg>